<?xml version="1.0" encoding="UTF-8"?>
<svg width="150px" height="150px" viewBox="0 0 150 150" version="1.1" xmlns="http://www.w3.org/2000/svg" xmlns:xlink="http://www.w3.org/1999/xlink">
    <!-- Generator: Sketch 39.1 (31720) - http://www.bohemiancoding.com/sketch -->
    <title>Artboard 2</title>
    <desc>Created with Sketch.</desc>
    <defs></defs>
    <g id="Page-1" stroke="none" stroke-width="1" fill="none" fill-rule="evenodd">
        <g id="Artboard-2">
            <g id="network-icon02">
                <rect id="Rectangle" fill="#306FFD" x="0" y="0" width="150" height="150"></rect>
                <g id="Group" transform="translate(22.000000, 22.000000)" fill="#FFFFFF">
                    <g id="Group-4">
                        <path d="M3.56666667,39.6296296 C1.98148148,39.6296296 0.792592593,40.8185185 0.792592593,42.4037037 C0.792592593,43.9888889 1.98148148,45.1777778 3.56666667,45.1777778 C5.15185185,45.1777778 6.34074074,43.9888889 6.34074074,42.4037037 C6.34074074,40.8185185 5.01975309,39.6296296 3.56666667,39.6296296 L3.56666667,39.6296296 Z" id="Shape"></path>
                        <path d="M103.433333,45.1777778 C105.018519,45.1777778 106.207407,43.9888889 106.207407,42.4037037 C106.207407,40.8185185 105.018519,39.6296296 103.433333,39.6296296 C101.848148,39.6296296 100.659259,40.8185185 100.659259,42.4037037 C100.659259,43.9888889 101.980247,45.1777778 103.433333,45.1777778 L103.433333,45.1777778 Z" id="Shape"></path>
                        <path d="M64.5962963,6.34074074 C66.1814815,6.34074074 67.3703704,5.15185185 67.3703704,3.56666667 C67.3703704,1.98148148 66.1814815,0.792592593 64.5962963,0.792592593 C63.0111111,0.792592593 61.8222222,1.98148148 61.8222222,3.56666667 C61.8222222,5.01975309 63.0111111,6.34074074 64.5962963,6.34074074 L64.5962963,6.34074074 Z" id="Shape"></path>
                        <path d="M3.56666667,61.8222222 C1.98148148,61.8222222 0.792592593,63.0111111 0.792592593,64.5962963 C0.792592593,66.1814815 1.98148148,67.3703704 3.56666667,67.3703704 C5.15185185,67.3703704 6.34074074,66.1814815 6.34074074,64.5962963 C6.34074074,63.0111111 5.01975309,61.8222222 3.56666667,61.8222222 L3.56666667,61.8222222 Z" id="Shape"></path>
                        <path d="M42.4037037,100.659259 C40.8185185,100.659259 39.6296296,101.848148 39.6296296,103.433333 C39.6296296,105.018519 40.8185185,106.207407 42.4037037,106.207407 C43.9888889,106.207407 45.1777778,105.018519 45.1777778,103.433333 C45.1777778,101.848148 43.9888889,100.659259 42.4037037,100.659259 L42.4037037,100.659259 Z" id="Shape"></path>
                        <path d="M42.4037037,6.34074074 C43.9888889,6.34074074 45.1777778,5.15185185 45.1777778,3.56666667 C45.1777778,1.98148148 43.9888889,0.792592593 42.4037037,0.792592593 C40.8185185,0.792592593 39.6296296,1.98148148 39.6296296,3.56666667 C39.6296296,5.01975309 40.8185185,6.34074074 42.4037037,6.34074074 L42.4037037,6.34074074 Z" id="Shape"></path>
                        <path d="M103.433333,61.8222222 C101.848148,61.8222222 100.659259,63.0111111 100.659259,64.5962963 C100.659259,66.1814815 101.848148,67.3703704 103.433333,67.3703704 C105.018519,67.3703704 106.207407,66.1814815 106.207407,64.5962963 C106.207407,63.0111111 105.018519,61.8222222 103.433333,61.8222222 L103.433333,61.8222222 Z" id="Shape"></path>
                        <path d="M64.5962963,100.659259 C63.0111111,100.659259 61.8222222,101.848148 61.8222222,103.433333 C61.8222222,105.018519 63.0111111,106.207407 64.5962963,106.207407 C66.1814815,106.207407 67.3703704,105.018519 67.3703704,103.433333 C67.3703704,101.848148 66.1814815,100.659259 64.5962963,100.659259 L64.5962963,100.659259 Z" id="Shape"></path>
                    </g>
                    <g id="Group-3" transform="translate(14.530864, 14.530864)">
                        <path d="M5.68024691,44.517284 C2.64197531,44.517284 0.132098765,47.0271605 0.132098765,50.0654321 C0.132098765,53.1037037 2.64197531,55.6135802 5.68024691,55.6135802 C8.71851852,55.6135802 11.2283951,53.1037037 11.2283951,50.0654321 C11.2283951,47.0271605 8.71851852,44.517284 5.68024691,44.517284 L5.68024691,44.517284 Z" id="Shape"></path>
                        <path d="M5.68024691,66.7098765 C2.64197531,66.7098765 0.132098765,69.2197531 0.132098765,72.2580247 C0.132098765,75.2962963 2.64197531,77.8061728 5.68024691,77.8061728 C8.71851852,77.8061728 11.2283951,75.2962963 11.2283951,72.2580247 C11.2283951,69.2197531 8.71851852,66.7098765 5.68024691,66.7098765 L5.68024691,66.7098765 Z" id="Shape"></path>
                        <path d="M5.68024691,22.3246914 C2.64197531,22.3246914 0.132098765,24.8345679 0.132098765,27.8728395 C0.132098765,30.9111111 2.64197531,33.4209877 5.68024691,33.4209877 C8.71851852,33.4209877 11.2283951,30.9111111 11.2283951,27.8728395 C11.2283951,24.8345679 8.71851852,22.3246914 5.68024691,22.3246914 L5.68024691,22.3246914 Z" id="Shape"></path>
                        <path d="M5.68024691,0.132098765 C2.64197531,0.132098765 0.132098765,2.64197531 0.132098765,5.68024691 C0.132098765,8.71851852 2.64197531,11.2283951 5.68024691,11.2283951 C8.71851852,11.2283951 11.2283951,8.71851852 11.2283951,5.68024691 C11.2283951,2.64197531 8.71851852,0.132098765 5.68024691,0.132098765 L5.68024691,0.132098765 Z" id="Shape"></path>
                        <path d="M50.0654321,11.2283951 C53.1037037,11.2283951 55.6135802,8.71851852 55.6135802,5.68024691 C55.6135802,2.64197531 53.1037037,0.132098765 50.0654321,0.132098765 C47.0271605,0.132098765 44.517284,2.64197531 44.517284,5.68024691 C44.517284,8.71851852 47.0271605,11.2283951 50.0654321,11.2283951 L50.0654321,11.2283951 Z" id="Shape"></path>
                        <path d="M27.8728395,11.2283951 C30.9111111,11.2283951 33.4209877,8.71851852 33.4209877,5.68024691 C33.4209877,2.64197531 30.9111111,0.132098765 27.8728395,0.132098765 C24.8345679,0.132098765 22.3246914,2.64197531 22.3246914,5.68024691 C22.3246914,8.71851852 24.8345679,11.2283951 27.8728395,11.2283951 L27.8728395,11.2283951 Z" id="Shape"></path>
                        <path d="M72.2580247,44.517284 C69.2197531,44.517284 66.7098765,47.0271605 66.7098765,50.0654321 C66.7098765,53.1037037 69.2197531,55.6135802 72.2580247,55.6135802 C75.2962963,55.6135802 77.8061728,53.1037037 77.8061728,50.0654321 C77.8061728,47.0271605 75.2962963,44.517284 72.2580247,44.517284 L72.2580247,44.517284 Z" id="Shape"></path>
                        <path d="M72.2580247,66.7098765 C69.2197531,66.7098765 66.7098765,69.2197531 66.7098765,72.2580247 C66.7098765,75.2962963 69.2197531,77.8061728 72.2580247,77.8061728 C75.2962963,77.8061728 77.8061728,75.2962963 77.8061728,72.2580247 C77.8061728,69.2197531 75.2962963,66.7098765 72.2580247,66.7098765 L72.2580247,66.7098765 Z" id="Shape"></path>
                        <path d="M72.2580247,22.3246914 C69.2197531,22.3246914 66.7098765,24.8345679 66.7098765,27.8728395 C66.7098765,30.9111111 69.2197531,33.4209877 72.2580247,33.4209877 C75.2962963,33.4209877 77.8061728,30.9111111 77.8061728,27.8728395 C77.8061728,24.8345679 75.2962963,22.3246914 72.2580247,22.3246914 L72.2580247,22.3246914 Z" id="Shape"></path>
                        <path d="M72.2580247,0.132098765 C69.2197531,0.132098765 66.7098765,2.64197531 66.7098765,5.68024691 C66.7098765,8.71851852 69.2197531,11.2283951 72.2580247,11.2283951 C75.2962963,11.2283951 77.8061728,8.71851852 77.8061728,5.68024691 C77.8061728,2.64197531 75.2962963,0.132098765 72.2580247,0.132098765 L72.2580247,0.132098765 Z" id="Shape"></path>
                        <path d="M50.0654321,66.7098765 C47.0271605,66.7098765 44.517284,69.2197531 44.517284,72.2580247 C44.517284,75.2962963 47.0271605,77.8061728 50.0654321,77.8061728 C53.1037037,77.8061728 55.6135802,75.2962963 55.6135802,72.2580247 C55.6135802,69.2197531 53.1037037,66.7098765 50.0654321,66.7098765 L50.0654321,66.7098765 Z" id="Shape"></path>
                        <path d="M27.8728395,66.7098765 C24.8345679,66.7098765 22.3246914,69.2197531 22.3246914,72.2580247 C22.3246914,75.2962963 24.8345679,77.8061728 27.8728395,77.8061728 C30.9111111,77.8061728 33.4209877,75.2962963 33.4209877,72.2580247 C33.4209877,69.2197531 30.9111111,66.7098765 27.8728395,66.7098765 L27.8728395,66.7098765 Z" id="Shape"></path>
                    </g>
                    <g id="Group-2" transform="translate(33.955126, 33.955126)">
                        <ellipse id="Oval" cx="8.44857756" cy="8.44857756" rx="8.32222222" ry="8.32222222"></ellipse>
                        <ellipse id="Oval" cx="30.6411702" cy="30.6411702" rx="8.32222222" ry="8.32222222"></ellipse>
                        <ellipse id="Oval" cx="30.6411702" cy="8.44857756" rx="8.32222222" ry="8.32222222"></ellipse>
                        <ellipse id="Oval" cx="8.44857756" cy="30.6411702" rx="8.32222222" ry="8.32222222"></ellipse>
                    </g>
                </g>
            </g>
        </g>
    </g>
</svg>