<?xml version="1.0" encoding="UTF-8"?>
<svg width="220px" height="220px" viewBox="0 0 220 220" version="1.1" xmlns="http://www.w3.org/2000/svg" xmlns:xlink="http://www.w3.org/1999/xlink">
    <!-- Generator: Sketch 39.1 (31720) - http://www.bohemiancoding.com/sketch -->
    <title>Artboard 3</title>
    <desc>Created with Sketch.</desc>
    <defs></defs>
    <g id="Page-1" stroke="none" stroke-width="1" fill="none" fill-rule="evenodd">
        <g id="Artboard-3" fill="#FFFFFF">
            <g id="Group" transform="translate(15.000000, 15.000000)">
                <g id="Group-4">
                    <path d="M5.10236407,70.3895456 C2.23259785,70.3895456 0.080273181,72.5418702 0.080273181,75.4116365 C0.080273181,78.2814027 2.23259785,80.4337273 5.10236407,80.4337273 C7.97213029,80.4337273 10.124455,78.2814027 10.124455,75.4116365 C10.124455,72.5418702 7.7329831,70.3895456 5.10236407,70.3895456 L5.10236407,70.3895456 Z" id="Shape"></path>
                    <path d="M185.897636,80.4337273 C188.767402,80.4337273 190.919727,78.2814027 190.919727,75.4116365 C190.919727,72.5418702 188.767402,70.3895456 185.897636,70.3895456 C183.02787,70.3895456 180.875545,72.5418702 180.875545,75.4116365 C180.875545,78.2814027 183.267017,80.4337273 185.897636,80.4337273 L185.897636,80.4337273 Z" id="Shape"></path>
                    <path d="M115.588364,10.124455 C118.45813,10.124455 120.610454,7.97213029 120.610454,5.10236407 C120.610454,2.23259785 118.45813,0.080273181 115.588364,0.080273181 C112.718597,0.080273181 110.566273,2.23259785 110.566273,5.10236407 C110.566273,7.7329831 112.718597,10.124455 115.588364,10.124455 L115.588364,10.124455 Z" id="Shape"></path>
                    <path d="M5.10236407,110.566273 C2.23259785,110.566273 0.080273181,112.718597 0.080273181,115.588364 C0.080273181,118.45813 2.23259785,120.610454 5.10236407,120.610454 C7.97213029,120.610454 10.124455,118.45813 10.124455,115.588364 C10.124455,112.718597 7.7329831,110.566273 5.10236407,110.566273 L5.10236407,110.566273 Z" id="Shape"></path>
                    <path d="M75.4116365,180.875545 C72.5418702,180.875545 70.3895456,183.02787 70.3895456,185.897636 C70.3895456,188.767402 72.5418702,190.919727 75.4116365,190.919727 C78.2814027,190.919727 80.4337273,188.767402 80.4337273,185.897636 C80.4337273,183.02787 78.2814027,180.875545 75.4116365,180.875545 L75.4116365,180.875545 Z" id="Shape"></path>
                    <path d="M75.4116365,10.124455 C78.2814027,10.124455 80.4337273,7.97213029 80.4337273,5.10236407 C80.4337273,2.23259785 78.2814027,0.080273181 75.4116365,0.080273181 C72.5418702,0.080273181 70.3895456,2.23259785 70.3895456,5.10236407 C70.3895456,7.7329831 72.5418702,10.124455 75.4116365,10.124455 L75.4116365,10.124455 Z" id="Shape"></path>
                    <path d="M185.897636,110.566273 C183.02787,110.566273 180.875545,112.718597 180.875545,115.588364 C180.875545,118.45813 183.02787,120.610454 185.897636,120.610454 C188.767402,120.610454 190.919727,118.45813 190.919727,115.588364 C190.919727,112.718597 188.767402,110.566273 185.897636,110.566273 L185.897636,110.566273 Z" id="Shape"></path>
                    <path d="M115.588364,180.875545 C112.718597,180.875545 110.566273,183.02787 110.566273,185.897636 C110.566273,188.767402 112.718597,190.919727 115.588364,190.919727 C118.45813,190.919727 120.610454,188.767402 120.610454,185.897636 C120.610454,183.02787 118.45813,180.875545 115.588364,180.875545 L115.588364,180.875545 Z" id="Shape"></path>
                </g>
                <g id="Group-3" transform="translate(24.951580, 24.951580)">
                    <path d="M10.283329,80.5926013 C4.7829437,80.5926013 0.239147185,85.1363979 0.239147185,90.6367831 C0.239147185,96.1371684 4.7829437,100.680965 10.283329,100.680965 C15.7837142,100.680965 20.3275107,96.1371684 20.3275107,90.6367831 C20.3275107,85.1363979 15.7837142,80.5926013 10.283329,80.5926013 L10.283329,80.5926013 Z" id="Shape"></path>
                    <path d="M10.283329,120.769328 C4.7829437,120.769328 0.239147185,125.313125 0.239147185,130.81351 C0.239147185,136.313895 4.7829437,140.857692 10.283329,140.857692 C15.7837142,140.857692 20.3275107,136.313895 20.3275107,130.81351 C20.3275107,125.313125 15.7837142,120.769328 10.283329,120.769328 L10.283329,120.769328 Z" id="Shape"></path>
                    <path d="M10.283329,40.4158743 C4.7829437,40.4158743 0.239147185,44.9596708 0.239147185,50.460056 C0.239147185,55.9604413 4.7829437,60.5042378 10.283329,60.5042378 C15.7837142,60.5042378 20.3275107,55.9604413 20.3275107,50.460056 C20.3275107,44.9596708 15.7837142,40.4158743 10.283329,40.4158743 L10.283329,40.4158743 Z" id="Shape"></path>
                    <path d="M10.283329,0.239147185 C4.7829437,0.239147185 0.239147185,4.7829437 0.239147185,10.283329 C0.239147185,15.7837142 4.7829437,20.3275107 10.283329,20.3275107 C15.7837142,20.3275107 20.3275107,15.7837142 20.3275107,10.283329 C20.3275107,4.7829437 15.7837142,0.239147185 10.283329,0.239147185 L10.283329,0.239147185 Z" id="Shape"></path>
                    <path d="M90.6367831,20.3275107 C96.1371684,20.3275107 100.680965,15.7837142 100.680965,10.283329 C100.680965,4.7829437 96.1371684,0.239147185 90.6367831,0.239147185 C85.1363979,0.239147185 80.5926013,4.7829437 80.5926013,10.283329 C80.5926013,15.7837142 85.1363979,20.3275107 90.6367831,20.3275107 L90.6367831,20.3275107 Z" id="Shape"></path>
                    <path d="M50.460056,20.3275107 C55.9604413,20.3275107 60.5042378,15.7837142 60.5042378,10.283329 C60.5042378,4.7829437 55.9604413,0.239147185 50.460056,0.239147185 C44.9596708,0.239147185 40.4158743,4.7829437 40.4158743,10.283329 C40.4158743,15.7837142 44.9596708,20.3275107 50.460056,20.3275107 L50.460056,20.3275107 Z" id="Shape"></path>
                    <path d="M130.81351,80.5926013 C125.313125,80.5926013 120.769328,85.1363979 120.769328,90.6367831 C120.769328,96.1371684 125.313125,100.680965 130.81351,100.680965 C136.313895,100.680965 140.857692,96.1371684 140.857692,90.6367831 C140.857692,85.1363979 136.313895,80.5926013 130.81351,80.5926013 L130.81351,80.5926013 Z" id="Shape"></path>
                    <path d="M130.81351,120.769328 C125.313125,120.769328 120.769328,125.313125 120.769328,130.81351 C120.769328,136.313895 125.313125,140.857692 130.81351,140.857692 C136.313895,140.857692 140.857692,136.313895 140.857692,130.81351 C140.857692,125.313125 136.313895,120.769328 130.81351,120.769328 L130.81351,120.769328 Z" id="Shape"></path>
                    <path d="M130.81351,40.4158743 C125.313125,40.4158743 120.769328,44.9596708 120.769328,50.460056 C120.769328,55.9604413 125.313125,60.5042378 130.81351,60.5042378 C136.313895,60.5042378 140.857692,55.9604413 140.857692,50.460056 C140.857692,44.9596708 136.313895,40.4158743 130.81351,40.4158743 L130.81351,40.4158743 Z" id="Shape"></path>
                    <path d="M130.81351,0.239147185 C125.313125,0.239147185 120.769328,4.7829437 120.769328,10.283329 C120.769328,15.7837142 125.313125,20.3275107 130.81351,20.3275107 C136.313895,20.3275107 140.857692,15.7837142 140.857692,10.283329 C140.857692,4.7829437 136.313895,0.239147185 130.81351,0.239147185 L130.81351,0.239147185 Z" id="Shape"></path>
                    <path d="M90.6367831,120.769328 C85.1363979,120.769328 80.5926013,125.313125 80.5926013,130.81351 C80.5926013,136.313895 85.1363979,140.857692 90.6367831,140.857692 C96.1371684,140.857692 100.680965,136.313895 100.680965,130.81351 C100.680965,125.313125 96.1371684,120.769328 90.6367831,120.769328 L90.6367831,120.769328 Z" id="Shape"></path>
                    <path d="M50.460056,120.769328 C44.9596708,120.769328 40.4158743,125.313125 40.4158743,130.81351 C40.4158743,136.313895 44.9596708,140.857692 50.460056,140.857692 C55.9604413,140.857692 60.5042378,136.313895 60.5042378,130.81351 C60.5042378,125.313125 55.9604413,120.769328 50.460056,120.769328 L50.460056,120.769328 Z" id="Shape"></path>
                </g>
                <g id="Group-2" transform="translate(60.116614, 60.116614)">
                    <circle id="Oval" cx="15.2950221" cy="15.2950221" r="15.0662727"></circle>
                    <ellipse id="Oval" cx="55.4717492" cy="55.4717492" rx="15.0662727" ry="15.0662727"></ellipse>
                    <ellipse id="Oval" cx="55.4717492" cy="15.2950221" rx="15.0662727" ry="15.0662727"></ellipse>
                    <ellipse id="Oval" cx="15.2950221" cy="55.4717492" rx="15.0662727" ry="15.0662727"></ellipse>
                </g>
            </g>
        </g>
    </g>
</svg>